<svg width="166" height="33" viewBox="0 0 166 33" fill="none" xmlns="http://www.w3.org/2000/svg">
<path d="M66.6614 26.1513L66.6158 26.2774C66.5909 26.3472 66.5286 26.3721 66.4797 26.3721C66.4307 26.3721 66.3718 26.348 66.3469 26.2774L60.0729 8.76452H57.2368L64.457 28.4022C64.7682 29.2497 65.5816 29.8165 66.483 29.8165C67.3843 29.8165 68.2019 29.2455 68.509 28.3956L75.6876 8.7612H72.9702L66.6647 26.148L66.6614 26.1513Z" fill="black"/>
<path d="M51.4057 9.70835L51.3949 9.70171C50.0221 8.86507 48.4119 8.44177 46.6092 8.44177C44.6454 8.44177 42.885 8.92151 41.3794 9.86273C39.8704 10.7799 38.686 12.0788 37.851 13.7206C37.0194 15.3341 36.5969 17.2032 36.5969 19.2724C36.5969 21.3416 37.0194 23.2207 37.851 24.8624C38.686 26.5042 39.8704 27.8172 41.3794 28.7584C42.885 29.6723 44.6421 30.1379 46.6092 30.1379C48.1148 30.1379 49.505 29.8789 50.7417 29.3676C52.01 28.829 53.0757 28.0338 53.9098 27.0121C54.7697 25.9896 55.3457 24.7155 55.6146 23.2315L55.6321 23.1302H53.0433L53.0292 23.2033C52.7918 24.5686 52.0755 25.6576 50.8978 26.4411C49.7134 27.2321 48.2708 27.6346 46.6083 27.6346C44.4495 27.6346 42.6849 26.886 41.3719 25.4119C40.1211 23.9561 39.4679 21.9641 39.4297 19.4824H55.6877L55.6985 19.4085C55.7541 19.0267 55.7823 18.6034 55.7823 18.1519C55.8105 16.2969 55.4295 14.6161 54.6469 13.1636C53.8924 11.6829 52.8026 10.5209 51.4082 9.71582L51.4049 9.70918L51.4057 9.70835ZM42.7596 11.9842C43.8428 11.2978 45.1351 10.9517 46.6092 10.9517C47.8459 10.9517 48.939 11.2181 49.8578 11.746C50.7766 12.2714 51.4929 13.0167 51.9958 13.9654C52.5096 14.8618 52.8134 15.901 52.9039 17.053H39.6156C39.7625 16.262 39.9933 15.5341 40.297 14.8825C40.8772 13.64 41.7047 12.6665 42.7563 11.9842H42.7596Z" fill="black"/>
<path d="M91.5151 9.7017C90.1423 8.86838 88.5355 8.44508 86.7327 8.44508C84.7698 8.44508 83.0093 8.92482 81.5029 9.86604C79.994 10.7832 78.8096 12.0821 77.9746 13.7239C77.1429 15.3374 76.7205 17.2032 76.7205 19.2757C76.7205 21.3482 77.1429 23.224 77.9746 24.8657C78.8062 26.5075 79.994 27.8197 81.5029 28.7617C83.0085 29.6756 84.7656 30.1412 86.7327 30.1412C88.235 30.1412 89.6252 29.8822 90.8653 29.371C92.1335 28.8315 93.1984 28.0371 94.0334 27.0154C94.8924 25.9937 95.4692 24.7188 95.7382 23.2348L95.7556 23.1335H93.1668L93.1527 23.2074C92.9187 24.5727 92.1991 25.6617 91.0221 26.4452C89.8377 27.2362 88.3952 27.6387 86.7327 27.6387C84.5739 27.6387 82.8101 26.8893 81.4963 25.416C80.2455 23.9594 79.5922 21.9682 79.5541 19.4857H95.8154L95.8253 19.4118C95.8809 19.0267 95.9091 18.6034 95.9091 18.1552C95.9374 16.3002 95.5564 14.6194 94.7737 13.1669C94.0192 11.6829 92.9261 10.5209 91.521 9.70834L91.5143 9.7017H91.5151ZM79.7392 17.053C79.8861 16.262 80.1168 15.5299 80.4206 14.8825C81.0007 13.64 81.8283 12.6664 82.8799 11.9842C83.963 11.2978 85.2586 10.9517 86.7327 10.9517C87.9694 10.9517 89.0625 11.2181 89.9855 11.746C90.9009 12.2714 91.6206 13.0167 92.1235 13.9654C92.6373 14.8618 92.9411 15.9009 93.0315 17.053H79.7433H79.74H79.7392Z" fill="black"/>
<path d="M139.064 11.9352C138.39 10.9625 137.422 10.1433 136.182 9.49919C134.833 8.79867 133.44 8.44177 132.042 8.44177C129.946 8.44177 128.115 8.93562 126.61 9.90506C125.128 10.8471 123.983 12.156 123.203 13.8011C122.424 15.4146 122.03 17.2563 122.03 19.2691C122.03 21.2818 122.411 23.1369 123.162 24.7753C123.941 26.4203 125.101 27.7433 126.61 28.7136C128.115 29.659 129.942 30.1346 132.042 30.1346C133.656 30.1346 135.158 29.7669 136.503 29.039C137.705 28.3874 138.567 27.6072 139.064 26.715V29.8134H141.771V8.76381H139.064V11.9352ZM139.35 19.2691C139.35 20.9357 139.043 22.4264 138.435 23.6971L138.428 23.7179C137.848 24.9463 137 25.9157 135.899 26.5988C134.819 27.2852 133.552 27.6313 132.127 27.6313C130.702 27.6313 129.419 27.2852 128.315 26.5988C127.232 25.9124 126.38 24.9222 125.776 23.6581C125.168 22.3874 124.86 20.9133 124.86 19.2716C124.86 17.6298 125.167 16.1699 125.776 14.9274C126.38 13.6633 127.236 12.6731 128.315 11.9867C129.423 11.3003 130.705 10.9542 132.127 10.9542C133.548 10.9542 134.82 11.3011 135.899 11.9867C137.003 12.6689 137.859 13.66 138.439 14.9274C139.046 16.1699 139.354 17.6298 139.354 19.2716L139.351 19.2682L139.35 19.2691Z" fill="black"/>
<path d="M109.389 8.44343C107.957 8.44343 106.587 8.90906 105.32 9.82621L105.243 9.88182C104.146 10.6728 103.329 11.6638 102.808 12.8325V8.76464H100.101V29.8167H102.808V21.6462C102.808 19.3604 103.091 17.3933 103.647 15.8005C104.202 14.187 104.964 12.9545 105.91 12.1386C106.878 11.3268 107.953 10.9135 109.11 10.9135C109.959 10.9135 110.692 11.0081 111.293 11.1899L111.405 11.2247V8.66587L111.342 8.64844C110.882 8.51232 110.224 8.44177 109.389 8.44177V8.44343Z" fill="black"/>
<path d="M164.826 13.8028C164.044 12.1578 162.884 10.848 161.382 9.90683C159.9 8.93739 158.084 8.44355 155.988 8.44355C154.587 8.44355 153.193 8.80044 151.848 9.50096C150.604 10.1484 149.634 10.9676 148.963 11.9412V0.31871H146.255V29.8176H148.963V26.7192C149.462 27.6115 150.321 28.3925 151.526 29.0432C152.871 29.7711 154.373 30.1388 155.988 30.1388C158.088 30.1388 159.914 29.6591 161.42 28.7179C162.929 27.7443 164.078 26.4213 164.826 24.7795C165.606 23.1378 166 21.2861 166 19.2733C166 17.2606 165.605 15.4188 164.826 13.8053V13.802V13.8028ZM163.174 19.2742C163.174 20.8669 162.884 22.3053 162.311 23.5487L162.258 23.6574C161.654 24.9248 160.784 25.9117 159.677 26.5981C158.597 27.2836 157.329 27.6306 155.908 27.6306C154.486 27.6306 153.201 27.2836 152.097 26.5981C151.013 25.9117 150.161 24.9356 149.56 23.6997C148.98 22.429 148.683 20.9416 148.683 19.2717C148.683 17.6017 148.969 16.1841 149.556 14.9275C150.16 13.6634 151.016 12.6732 152.092 11.9868C153.2 11.3004 154.482 10.9543 155.904 10.9543C157.326 10.9543 158.597 11.3012 159.677 11.9868C160.784 12.6732 161.651 13.6601 162.258 14.9275C162.866 16.17 163.174 17.6299 163.174 19.2717V19.275V19.2742Z" fill="black"/>
<path d="M119.553 27.5949H119.03C118.484 27.5949 118.073 27.4447 117.768 27.14C117.488 26.8072 117.346 26.3806 117.346 25.8693V0.31871H114.638V26.1914C114.638 27.3119 114.998 28.239 115.711 28.9494C116.448 29.6599 117.439 30.021 118.666 30.021C118.932 30.021 119.18 30.0069 119.4 29.9828C119.623 29.9546 119.816 29.9131 119.98 29.8566L120.039 29.8359V27.487L119.931 27.5152C119.816 27.5467 119.669 27.5708 119.553 27.5924V27.5957V27.5949Z" fill="black"/>
<path d="M4.80873 14.572C5.46692 14.572 6.08941 14.2839 6.51686 13.781C7.02482 13.1825 7.72617 12.8397 8.44162 12.8397H21.6029C22.2503 12.8397 22.8885 13.1029 23.3998 13.5801C23.7517 13.908 24.2074 14.0698 24.6888 14.0333C25.5661 13.9702 26.2625 13.2323 26.2741 12.3534C26.2807 11.8919 26.1064 11.4561 25.7827 11.1275C25.4582 10.798 25.025 10.617 24.5635 10.617C24.102 10.617 23.7044 10.783 23.3882 11.0843C22.8894 11.5557 22.2818 11.8164 21.6767 11.8164H8.40925C7.70708 11.8164 7.02067 11.4769 6.52516 10.8859C6.05704 10.329 5.37313 10.0393 4.64605 10.0891C3.50978 10.168 2.59513 11.1233 2.56442 12.2629C2.54699 12.8746 2.77192 13.4523 3.19771 13.8905C3.62432 14.3296 4.19619 14.5711 4.80873 14.5711V14.572Z" fill="black"/>
<path d="M24.1956 21.9883C23.4701 21.9361 22.7846 22.2274 22.3164 22.7851C21.8209 23.3761 21.1345 23.7156 20.4324 23.7156H7.23874C6.59051 23.7156 5.95307 23.4525 5.44428 22.9752C5.09237 22.6474 4.6367 22.4863 4.1553 22.522C3.27799 22.5851 2.5808 23.3246 2.57001 24.2044C2.56337 24.6659 2.73767 25.1017 3.0622 25.4303C3.38672 25.7599 3.81998 25.9408 4.28063 25.9408C4.74128 25.9408 5.13885 25.7748 5.4559 25.4727C5.95473 25.0012 6.56229 24.7406 7.16736 24.7406H20.4008C21.1138 24.7406 21.8151 25.0842 22.3256 25.6827C22.7547 26.1856 23.378 26.4736 24.0337 26.4736H24.1458V26.4678C24.7135 26.4404 25.2405 26.2022 25.6406 25.7914C26.0672 25.3532 26.2938 24.7746 26.278 24.1621C26.2465 23.0217 25.3318 22.0672 24.1964 21.9875L24.1956 21.9883Z" fill="black"/>
<path d="M19.799 27.665C19.0246 27.665 18.3059 28.0169 17.8269 28.6303C17.3165 29.2818 16.572 29.6561 15.7827 29.6561H10.5271C9.91293 29.6561 9.34024 29.4511 8.91362 29.0785C8.58245 28.7896 8.1384 28.6718 7.69435 28.7573C7.13494 28.8652 6.68176 29.3092 6.56639 29.862C6.47426 30.2994 6.5805 30.7459 6.85689 31.0862C7.13245 31.4257 7.5408 31.6199 7.97655 31.6199C8.31602 31.6199 8.6447 31.4996 8.902 31.2813C9.36016 30.8945 9.94281 30.6812 10.5437 30.6812H15.7486C16.5703 30.6812 17.3314 31.048 17.783 31.6622C18.2627 32.3146 18.9997 32.6889 19.8057 32.6889H20.0679L20.0538 32.674C20.6423 32.6159 21.1859 32.3553 21.6043 31.9245C22.0815 31.4332 22.3338 30.7841 22.3139 30.0977C22.2716 28.7564 21.1444 27.665 19.8007 27.665H19.799Z" fill="black"/>
<path d="M9.04113 8.88903C9.83377 8.88903 10.5882 8.50723 11.0605 7.86814C11.5112 7.2556 12.2706 6.8904 13.0923 6.8904H18.3114C18.9239 6.8904 19.4999 7.09707 19.9332 7.47306C20.266 7.76356 20.7109 7.88225 21.1524 7.79676C21.7102 7.68969 22.165 7.24564 22.2829 6.69203C22.375 6.25462 22.2688 5.80892 21.9932 5.46862C21.7177 5.12915 21.3093 4.9341 20.8727 4.9341C20.5349 4.9341 20.2071 5.05445 19.9506 5.27191C19.4958 5.65537 18.9148 5.86619 18.3138 5.86619H13.0716C12.2823 5.86619 11.5353 5.4902 11.0223 4.83533C10.5418 4.2203 9.82132 3.86755 9.04777 3.86755H9.04279C7.69985 3.86755 6.57355 4.95734 6.53205 6.30027C6.51047 6.98585 6.76113 7.63408 7.23754 8.12544C7.71479 8.61845 8.35638 8.88903 9.04279 8.88903H9.04113Z" fill="black"/>
<path d="M28.8039 17.8812C28.6503 17.0894 28.0113 16.4661 27.212 16.3291C26.5256 16.2113 25.8408 16.452 25.3818 16.9707C24.9386 17.4754 24.2638 17.7642 23.5309 17.7642H5.31085C4.57796 17.7642 3.90318 17.4754 3.45996 16.9707C3.00346 16.452 2.32037 16.2113 1.62982 16.3291C0.831359 16.4661 0.191432 17.0902 0.0378826 17.8812C-0.0774869 18.4738 0.0735724 19.0773 0.451221 19.5354C0.828869 19.9936 1.38497 20.2558 1.97592 20.2558C2.56688 20.2558 3.0848 20.011 3.45913 19.5836C3.90235 19.0789 4.58128 18.7901 5.32081 18.7901H23.5193C24.2588 18.7901 24.9378 19.0789 25.381 19.5836C25.7553 20.011 26.2965 20.2558 26.8642 20.2558C27.4319 20.2558 28.0154 19.9927 28.3922 19.5346C28.769 19.0773 28.9184 18.4738 28.8022 17.8812H28.8039Z" fill="black"/>
</svg>
