<?xml version="1.0" encoding="UTF-8"?>
<svg width="94" height="94" viewBox="0 0 94 94" xmlns="http://www.w3.org/2000/svg">

  <path fill="#000000" stroke="none" d="M 91.725731 22.152901 C 90.267311 18.775803 88.164314 15.71566 85.534561 13.143517 C 82.902802 10.563667 79.799858 8.513542 76.394554 7.10466 C 72.863487 5.637833 69.076271 4.886932 65.252541 4.895821 C 59.888378 4.895821 54.654594 6.36467 50.1064 9.139389 C 49.018276 9.803047 47.984676 10.532135 47.005363 11.326424 C 46.026054 10.532135 44.992455 9.803047 43.904331 9.139389 C 39.356136 6.36467 34.122475 4.895821 28.758184 4.895821 C 24.895464 4.895821 21.152458 5.635696 17.616173 7.10466 C 14.199488 8.519112 11.120263 10.553833 8.476168 13.143517 C 5.842978 15.7127 3.739508 18.773674 2.284977 22.152901 C 0.772545 25.667381 0 29.399475 0 33.240505 C 0 36.863792 0.739901 40.6394 2.208821 44.480427 C 3.438318 47.690273 5.201008 51.019844 7.453354 54.382 C 11.022353 59.702785 15.929582 65.251984 22.02284 70.877396 C 32.120346 80.202316 42.119827 86.643822 42.544174 86.904945 L 45.122955 88.558815 C 46.265488 89.287796 47.734337 89.287796 48.876865 88.558815 L 51.45565 86.904945 C 51.879993 86.632919 61.86869 80.202316 71.976982 70.877396 C 78.070244 65.251984 82.977585 59.702785 86.546471 54.382 C 88.79882 51.019844 90.572411 47.690273 91.791039 44.480427 C 93.26001 40.6394 93.999886 36.863792 93.999886 33.240505 C 94.010796 29.399475 93.238197 25.667381 91.725731 22.152901 L 91.725731 22.152901 Z"/>
</svg>
