<svg xmlns="http://www.w3.org/2000/svg" width="110" height="25" viewBox="0 0 110 25" fill="none">
  <g clip-path="url(#clip0_18406_9809)">
    <path d="M34.753 21.6362V3.31445H37.9799V14.3339L43.031 8.39278H46.8129L41.2325 14.8832L47.0767 21.6362H43.2948L37.9783 15.4069V21.6362H34.7513H34.753Z" fill="#151515"/>
    <path d="M48.3733 6.14018V3.15686H51.8383V6.14018H48.3733ZM48.4795 21.6362V8.3912H51.7064V21.6346H48.4795V21.6362Z" fill="#151515"/>
    <path d="M53.2458 17.6054H56.4196C56.4196 18.4698 57.2657 19.3327 59.0642 19.3327C60.8626 19.3327 61.5769 18.6529 61.5769 17.8936C61.5769 17.1342 61.1007 16.6104 59.7511 16.4019L57.6615 16.0612C54.8319 15.6171 53.376 14.334 53.376 12.188C53.376 10.0421 55.2533 8.13171 58.9307 8.13171C62.608 8.13171 64.5914 10.4082 64.5914 12.3456H61.4433C61.4433 11.4828 60.5441 10.6963 58.9307 10.6963C57.3172 10.6963 56.603 11.4286 56.603 12.1625C56.603 12.8168 57.1049 13.261 58.3483 13.4711L60.5168 13.8118C63.3995 14.283 64.7748 15.6171 64.7748 17.8681C64.7748 20.1191 62.9233 21.8989 59.0626 21.8989C54.8303 21.8989 53.2441 19.3072 53.2441 17.607L53.2458 17.6054Z" fill="#151515"/>
    <path d="M66.2693 21.6362V8.39121H69.0458L69.3096 9.64726H69.4415C69.9434 8.99297 71.2142 8.12854 72.7473 8.12854C74.7307 8.12854 76.0273 9.27952 76.4761 10.0914H76.608C77.2161 9.20151 78.6976 8.12854 80.7872 8.12854C83.5911 8.12854 85.7064 10.327 85.7064 13.4154V21.6347H82.4538V13.7832C82.4538 12.1339 81.5288 11.166 80.1261 11.166C78.7234 11.166 77.6134 12.266 77.6134 13.7832V21.6347H74.3607V13.7832C74.3607 12.1339 73.4084 11.166 72.033 11.166C70.6577 11.166 69.4946 12.266 69.4946 13.7832V21.6347H66.2677L66.2693 21.6362Z" fill="#151515"/>
    <path d="M87.3746 15.0137C87.3746 11.0084 90.3104 8.13013 94.1711 8.13013C98.0318 8.13013 100.757 10.9304 100.757 14.7256C100.757 15.3544 100.678 15.8766 100.625 16.0612H90.6016C90.8396 17.8936 92.3212 19.2021 94.1727 19.2021C95.6269 19.2021 96.6581 18.4699 97.0827 17.763H100.388C99.7531 19.6479 97.7696 21.8989 94.1727 21.8989C90.312 21.8989 87.3762 18.9936 87.3762 15.0153L87.3746 15.0137ZM97.5299 13.8882C97.3449 12.1339 96.0226 10.7744 94.1711 10.7744C92.1877 10.7744 90.8654 12.1355 90.6 13.8882H97.5299Z" fill="#151515"/>
    <path d="M107.064 21.6362C104.896 21.6362 103.705 20.4582 103.705 18.5224V11.4032H101.59V8.39278H103.705V4.41449H106.958V8.39278H110V11.4032H106.958V17.8681C106.958 18.4698 107.222 18.7325 107.832 18.7325H110V21.6378H107.064V21.6362Z" fill="#151515"/>
    <path d="M27.5173 5.12293C27.0797 4.12 26.4492 3.21259 25.6593 2.44845C24.8695 1.68273 23.9397 1.0746 22.9166 0.655917C21.8581 0.219723 20.7224 -0.00315026 19.5755 3.36372e-05C17.9652 3.36372e-05 16.3952 0.436228 15.0311 1.25927C14.7045 1.45667 14.3941 1.67317 14.1013 1.90878C13.8069 1.67317 13.498 1.45667 13.1715 1.25927C11.8058 0.436228 10.2357 3.36372e-05 8.6271 3.36372e-05C7.46889 3.36372e-05 6.34606 0.219723 5.28436 0.655917C4.25966 1.07619 3.33631 1.67954 2.54325 2.44845C1.75341 3.211 1.12283 4.12 0.685278 5.12293C0.231643 6.16725 0 7.27525 0 8.41509C0 9.49125 0.221991 10.612 0.662757 11.7518C1.03113 12.7054 1.56037 13.694 2.236 14.6922C3.30735 16.2714 4.77925 17.919 6.60666 19.589C9.63572 22.3574 12.6358 24.2693 12.7629 24.3473L13.5367 24.8377C13.8793 25.0542 14.3201 25.0542 14.6627 24.8377L15.4365 24.3473C15.5635 24.2661 18.5604 22.3574 21.5927 19.589C23.4201 17.919 24.892 16.2714 25.9633 14.6922C26.639 13.694 27.1714 12.7054 27.5366 11.7518C27.9774 10.612 28.1994 9.49125 28.1994 8.41509C28.2026 7.27525 27.9709 6.16725 27.5173 5.12293Z" fill="#151515"/>
  </g>
  <defs>
    <clipPath id="clip0_18406_9809">
      <rect width="110" height="25" fill="white"/>
    </clipPath>
  </defs>
</svg>