<svg xmlns="http://www.w3.org/2000/svg" width="910" height="190" fill="none"><path fill="#fff" d="M91.161 145.282c32.008-19.669 49.671-48.49 39.863-66.593l-65.493 35.455L8.02 145.282h83.146-.004ZM0 149.561c0 21.975 33.347 39.793 74.48 39.793s74.48-17.814 74.48-39.789H0v-.004Zm67.481-41.46a145.964 145.964 0 0 0 2.946-5.184c19.536-36.18 19.692-73.974.34-84.411L35.392 84.02 3.763 142.593l63.718-34.492ZM39.583 67.144C37.463 29.764 20.55.646 0 .646v139.803l39.583-73.305Zm236.976 83.378h-33.074V53.757c0-13.548.432-22.794 6.485-32.04V20.64h-43.45v1.075c6.052 9.247 6.485 18.493 6.485 32.04v83.864c0 15.268-1.946 25.159-6.485 31.395v1.076h105.058v-34.836h-1.513c-6.053 12.257-16.213 15.267-33.506 15.267Zm91.41-85.36c-31.129 0-50.413 22.148-50.413 53.758 0 31.611 19.284 54.189 50.413 54.189 31.128 0 50.413-22.363 50.413-54.189 0-31.825-19.501-53.758-50.413-53.758Zm0 89.669c-14.916 0-23.995-13.332-23.995-35.911 0-22.578 9.079-35.48 23.995-35.48s23.995 12.902 23.995 35.48c0 22.579-9.296 35.911-23.995 35.911Zm89.873-57.386h-1.08v-29.89h-33.723c4.54 5.59 5.404 12.472 5.404 24.084v53.974c0 12.042-1.081 17.418-4.323 23.439v1.075h38.046v-1.075c-4.54-6.021-5.404-11.612-5.404-23.439V128.41c0-26.449 10.137-36.601 21.014-36.601 10.205 0 13.334 12.313 13.334 12.313 1.229 0 4.13-.022 4.13-.022V68.189c-2.378-.43-4.756-.645-7.566-.645-15.78 0-25.076 11.612-29.832 29.89v.01Zm83.311-62.371-17.077-16.988-17.51 16.988 17.51 17.418 17.077-17.418Zm-2.58 32.47h-33.722c3.891 5.59 5.62 11.612 5.62 22.578v55.049c0 12.687-1.081 17.848-4.54 23.869v1.076h36.966v-1.076c-3.675-6.021-4.324-11.182-4.324-23.869V67.544Zm171.791 83.669c-17.726 0-32.858-9.247-35.02-33.116h64.635v-9.031c0-27.955-17.077-43.867-42.369-43.867-27.886 0-49.719 23.224-49.719 53.113 0 33.761 23.13 54.834 54.475 54.834 14.699 0 28.318-5.806 38.91-17.202l-3.242-13.333c-8.863 6.021-18.375 8.602-27.67 8.602Zm-14.7-70.102c10.593 0 16.862 12.37 17.51 26.778l-37.397 3.259c0-30.105 16.667-30.048 19.887-30.048v.011Zm112.804 70.102c-17.726 0-32.858-9.247-35.02-33.116h64.635v-9.031c0-27.955-17.077-43.867-42.369-43.867-27.886 0-49.719 23.224-49.719 53.113 0 33.761 23.13 54.834 54.475 54.834 14.699 0 28.318-5.806 38.91-17.202l-3.242-13.333c-8.863 6.021-18.375 8.602-27.67 8.602Zm-14.7-70.102c10.593 0 16.862 12.37 17.51 26.778l-37.397 3.259c0-30.105 16.667-30.048 19.887-30.048v.011Zm113.638 69.648c-4.107 1.935-8.431 3.011-13.402 3.011-8.431 0-14.268-4.301-14.268-15.483V86.249h28.967V68.186h-28.967V40.66h-18.613c-.865 23.439-10.695 28.6-19 28.6v16.988h9.727v53.113c0 23.439 15.132 33.761 32.426 33.761 10.592 0 18.807-3.441 25.724-9.032l-2.594-13.332Z"/><path fill="#fff" d="m645.634 157.865-24.325-40.427-16.918-.102 26.191-25.283c11.024-10.537 17.942-16.773 27.453-22.794v-1.075h-41.459c3.436 3.225 3.55 8.635.262 12.008-2.958 3.033-6.087 6.19-7.009 7.13l-24.211 24.729h-1.081v-95.26h-33.29c4.54 6.665 5.404 12.256 5.404 24.513v102.572c0 12.687-.648 19.353-4.323 25.159v1.075h36.965v-1.075c-3.891-5.806-4.756-12.472-4.756-25.159v-7.096l11.89-11.612 25.462 44.942h36.146a35.315 35.315 0 0 1-12.401-12.245Z"/></svg>