<svg width="109" height="20" viewBox="0 0 109 20" fill="none" xmlns="http://www.w3.org/2000/svg">
<g clip-path="url(#clip0_471_33171)">
<path d="M37.4118 7.87768C37.4118 4.94187 36.1785 3.24368 33.3602 3.24368C30.5066 3.24368 29.2733 5.08336 29.2733 7.59469V18.843H26.3491V1.15714H29.1677V4.62336H29.2382C30.1188 2.21804 31.986 0.803101 34.5581 0.803101C38.363 0.803101 40.336 3.52697 40.336 6.85204V18.843H37.4118V7.87768Z" fill="white"/>
<path d="M46.5367 8.54953H56.6483C56.4018 5.40182 54.7103 3.13795 51.6102 3.13795C48.5097 3.13795 46.8185 5.40182 46.5367 8.54953M59.3259 13.2543C58.6564 16.3671 56.5778 19.1969 51.7511 19.1969C46.5367 19.1969 43.5771 14.9519 43.5771 9.99995C43.5771 5.04804 46.3607 0.803345 51.6102 0.803345C56.8597 0.803345 59.9952 4.94182 59.5373 10.8841H46.5367C46.6779 14.5629 48.7916 16.8623 52.033 16.8623C55.098 16.8623 56.0141 14.7044 56.4018 13.2543H59.3259H59.3259Z" fill="white"/>
<path d="M73.56 11.1673V10.2121L68.8742 10.7425C66.2319 11.0255 64.8931 11.9807 64.8931 13.8554C64.8931 15.5888 66.4784 16.8622 68.5573 16.8622C71.6574 16.8622 73.56 14.9873 73.56 11.1673ZM73.56 7.4178C73.56 4.76497 72.0802 3.13783 69.3675 3.13783C66.6898 3.13783 65.351 4.65901 65.2454 6.74555H62.3213C62.4973 3.49157 64.9636 0.803223 69.3675 0.803223C73.2431 0.803223 76.4841 2.7841 76.4841 8.09004V18.8428H73.6658V15.3765H73.5954C72.7144 17.7819 70.5654 19.1968 67.8526 19.1968C64.4703 19.1968 61.7222 17.1452 61.7222 13.7142C61.7222 10.1058 64.8931 8.90344 68.6278 8.51418L73.56 7.98377V7.4178H73.56Z" fill="white"/>
<path d="M83.7064 3.49159V18.8428H80.7822V1.15698H88.9912V3.49159H83.7064Z" fill="white"/>
<path d="M101.746 11.1673V10.2121L97.0598 10.7425C94.4175 11.0255 93.0783 11.9807 93.0783 13.8554C93.0783 15.5888 94.664 16.8622 96.7425 16.8622C99.843 16.8622 101.746 14.9873 101.746 11.1673ZM101.746 7.4178C101.746 4.76497 100.266 3.13783 97.553 3.13783C94.8754 3.13783 93.5365 4.65901 93.431 6.74555H90.5068C90.6828 3.49157 93.1491 0.803223 97.553 0.803223C101.429 0.803223 104.67 2.7841 104.67 8.09004V18.8428H101.851V15.3765H101.781C100.9 17.7819 98.7509 19.1968 96.0382 19.1968C92.6559 19.1968 89.9077 17.1452 89.9077 13.7142C89.9077 10.1058 93.0783 8.90344 96.8133 8.51418L101.746 7.98377V7.4178Z" fill="white"/>
<path d="M8.80813 9.99971C8.80813 5.1158 4.86455 1.15649 0 1.15649V9.99971H8.80813Z" fill="white"/>
<path d="M8.80813 18.8428C8.80813 13.9589 4.86455 9.99963 0 9.99963V18.8428H8.80813Z" fill="white"/>
<path d="M8.80811 9.99976C8.80811 14.8837 12.7514 18.843 17.6162 18.843V9.99976H8.80811Z" fill="white"/>
<path d="M8.80811 1.15662C8.80811 6.04053 12.7514 9.99983 17.6162 9.99983V1.15662H8.80811Z" fill="white"/>
<path d="M107.349 4.16902C106.604 4.16902 105.999 3.56228 105.999 2.81499C105.999 2.06735 106.604 1.46031 107.349 1.46031C108.093 1.46031 108.698 2.06735 108.698 2.81499C108.698 3.56228 108.093 4.16902 107.349 4.16902ZM107.349 1.15662C106.437 1.15662 105.697 1.89931 105.697 2.81498C105.697 3.73002 106.437 4.47271 107.349 4.47271C108.26 4.47271 109 3.73002 109 2.81498C109 1.89931 108.26 1.15662 107.349 1.15662Z" fill="white"/>
<path d="M107.293 2.7261H107.06V2.08568H107.293C107.595 2.08568 107.725 2.20278 107.725 2.40359C107.725 2.6044 107.595 2.7261 107.293 2.7261ZM108.093 2.40359C108.093 2.02515 107.744 1.81506 107.265 1.81506H106.72V3.79998H107.06V2.99676H107.307L107.758 3.79998H108.125L107.646 2.94547C107.921 2.85681 108.093 2.67021 108.093 2.40359" fill="white"/>
</g>
<defs>
<clipPath id="clip0_471_33171">
<rect width="109" height="18.3937" fill="white" transform="translate(0 0.803101)"/>
</clipPath>
</defs>
</svg>
