<svg width="130" height="40" viewBox="0 0 130 40" fill="none" xmlns="http://www.w3.org/2000/svg">
<path d="M24.897 0H0V24.897C0 33.2245 6.7735 40 15.1009 40H23.2579V16.3708H16.738V33.4801H15.1009C10.3682 33.4801 6.51993 29.6298 6.51993 24.897V6.51993H24.897C29.6298 6.51993 33.4801 10.3702 33.4801 15.1009V39.998H40V15.1009C40 6.77351 33.2245 0 24.897 0Z" fill="white"/>
<path d="M126.076 3.66577V35.8313H129.636V3.66577H126.076Z" fill="white"/>
<path d="M64.5261 12.2386C61.0916 12.2386 57.9574 13.6424 56.3528 15.8982H56.152L55.6996 12.7397H52.5918V35.8292H56.152V21.9901C56.152 18.0546 59.0854 15.247 63.4732 15.247C67.6339 15.247 69.7152 17.2777 69.7152 21.8907V35.8292H73.2754V21.1624C73.2754 15.245 69.9668 12.2366 64.5261 12.2366V12.2386Z" fill="white"/>
<path d="M88.9698 12.2385C81.8494 12.2385 77.2871 16.7015 77.2871 24.473C77.2871 31.5934 81.5249 36.3322 88.9191 36.3322C94.7858 36.3322 98.8228 33.4496 99.6241 28.9867H96.1896C95.437 31.7699 92.8039 33.3989 89.0185 33.3989C83.7786 33.3989 80.7946 30.5162 80.7195 25.1506H99.9486C100.525 17.1538 96.5629 12.2385 88.9678 12.2385H88.9698ZM80.7966 22.3937C81.249 17.4297 84.4075 15.1739 88.9191 15.1739C93.4307 15.1739 96.2911 17.4804 96.5162 22.3937H80.7966Z" fill="white"/>
<path d="M107.272 26.3292L100.076 35.8312H104.137L111.309 26.3292H107.272ZM113.664 23.6961L122.087 12.7396H118.001L111.684 21.1624H111.309L104.941 12.7396H100.829L118.756 35.8292H122.868L113.666 23.6941L113.664 23.6961Z" fill="white"/>
</svg>
