<svg viewBox="0 0 257 64" fill="none" xmlns="http://www.w3.org/2000/svg">
					<path
						d="M76.6628 26.2496C76.6628 28.3794 75.0645 29.817 71.868 29.817C67.3396 29.817 64.516 33.2779 64.1964 35.6206V49.411C64.1964 51.4343 62.4916 53.1381 60.4671 53.1381C58.3894 53.1381 56.6846 51.4343 56.6846 49.411V26.6756C56.6846 24.599 58.3894 22.8952 60.4671 22.8952C62.4916 22.8952 64.1964 24.599 64.1964 26.6756V29.5508C64.4095 27.4742 67.9789 22.7887 73.0934 22.7887C75.4375 22.7887 76.6628 24.4393 76.6628 26.2496Z"
						fill="#0A0A0A"></path>
					<path
						d="M106.604 38.0167C106.604 48.2397 97.8672 53.1914 91.3676 53.1914C84.8147 53.1914 76.1309 48.2397 76.1309 38.0167C76.1309 27.847 84.8147 22.7887 91.3676 22.7887C97.8672 22.7355 106.604 27.847 106.604 38.0167ZM83.4829 38.0167C83.4829 43.5009 87.2654 46.6956 91.3143 46.6956C95.31 46.6956 99.1458 43.5009 99.1458 38.0167C99.1458 32.4793 95.3632 29.2846 91.3143 29.2846C87.2654 29.2846 83.4829 32.4793 83.4829 38.0167Z"
						fill="#0A0A0A"></path>
					<path
						d="M128.554 26.9418C128.873 27.4742 129.459 28.2729 129.459 29.4443C129.459 31.2546 128.181 32.2663 126.529 32.2663C125.464 32.2663 124.345 31.8403 123.386 30.6689C122.267 29.3378 120.935 28.7521 119.284 28.7521C117.046 28.7521 115.714 29.817 115.714 31.4143C115.714 32.3195 116.034 33.5441 118.698 34.2895L122.161 35.3012C126.742 36.5791 130.578 38.7089 130.578 43.8203C130.578 50.1032 124.771 53.1381 118.804 53.1381C113.637 53.1381 110.547 50.9551 108.948 49.0383C108.682 48.6123 107.403 47.228 107.403 45.4177C107.403 44.1398 108.202 42.5425 110.28 42.5425C111.825 42.5425 112.678 43.5009 113.37 44.3528C115.022 46.4293 116.833 46.9618 118.804 46.9618C121.628 46.9618 123.173 45.7371 123.173 44.1398C123.173 43.1814 122.533 41.9035 119.816 41.1049L116.567 40.1465C110.813 38.5491 108.416 35.4609 108.416 31.4143C108.416 25.7172 113.69 22.7355 119.124 22.7355C122.96 22.7355 126.689 24.2796 128.554 26.9418Z"
						fill="#0A0A0A"></path>
					<path
						d="M149.863 49.0915C149.863 51.7005 147.306 53.0849 143.417 53.0849C139.528 53.0849 135.586 51.807 135.586 43.8736V28.9651H133.934C132.123 28.9651 130.897 27.7404 130.897 26.0366C130.897 24.2795 132.123 23.0549 133.934 23.0549H135.586V19.1681C135.586 17.0915 137.291 15.3877 139.368 15.3877C141.446 15.3877 143.098 17.0915 143.098 19.1681V23.0549H146.88C148.745 23.0549 149.917 24.2795 149.917 26.0366C149.917 27.7404 148.798 28.9651 146.88 28.9651H143.098V44.0865C143.098 45.7371 143.684 46.589 144.909 46.589C145.548 46.589 146.454 46.376 147.093 46.376C148.798 46.2696 149.863 47.3345 149.863 49.0915Z"
						fill="#0A0A0A"></path>
					<path
						d="M180.444 36.7388C180.444 39.7205 178.792 40.7321 175.755 40.7321L158.761 40.6257C159.453 44.7787 162.756 47.015 166.912 47.015C168.989 47.015 169.948 46.5358 171.653 45.7904C172.665 45.3112 173.465 44.8852 174.477 44.8852C176.075 44.8852 177.034 46.0034 177.034 47.441C177.034 48.3461 176.608 49.3578 175.223 50.5824C173.092 52.0732 170.268 53.0316 166.645 53.0316C159.027 53.0316 150.982 48.3461 150.982 37.9634C150.982 27.6872 159.506 22.7355 166.006 22.7355C172.506 22.7355 180.444 27.9002 180.444 36.7388ZM158.814 35.5142H173.092C172.506 31.0949 169.309 29.2846 166.059 29.2846C162.81 29.2846 159.293 31.0949 158.814 35.5142Z"
						fill="#0A0A0A"></path>
					<path
						d="M203.832 26.2496C203.832 28.3794 202.233 29.817 199.037 29.817C194.509 29.817 191.685 33.2779 191.365 35.6206V49.411C191.365 51.4343 189.661 53.1381 187.636 53.1381C185.558 53.1381 183.854 51.4343 183.854 49.411V26.6756C183.854 24.599 185.558 22.8952 187.636 22.8952C189.661 22.8952 191.365 24.599 191.365 26.6756V29.5508C191.578 27.4742 195.148 22.7887 200.262 22.7887C202.66 22.7887 203.832 24.4393 203.832 26.2496Z"
						fill="#0A0A0A"></path>
					<path
						d="M228.551 15.9201C228.551 17.5175 227.326 18.5824 225.727 18.5824C225.195 18.5824 224.396 18.4226 223.33 18.0499C222.584 17.7837 222.105 17.5707 221.412 17.5707C218.216 17.5707 217.789 20.1797 217.789 21.3511V23.0549H222.478C224.289 23.0549 225.514 24.2795 225.514 26.0366C225.514 27.7404 224.289 28.9651 222.478 28.9651H217.789V49.411C217.789 51.4875 216.085 53.1381 214.007 53.1381C211.982 53.1381 210.278 51.4875 210.278 49.411V28.9651H208.573C206.761 28.9651 205.536 27.7404 205.536 26.0366C205.536 24.2795 206.761 23.0549 208.573 23.0549H210.278V20.9251C210.278 12.9384 216.617 11.2346 220.293 11.2346C222.797 11.2346 224.982 11.8736 226.527 12.832C227.858 13.6839 228.551 14.6423 228.551 15.9201Z"
						fill="#0A0A0A"></path>
					<path
						d="M256.946 26.3028C256.946 26.995 256.733 27.5806 256.467 28.0066L241.656 61.3377C240.857 63.148 239.472 63.9467 238.034 63.9467C236.116 63.9467 234.73 62.4026 234.73 60.5923C234.73 59.9001 234.944 59.3144 235.157 58.8885L238.406 51.4875L227.751 28.0598C227.592 27.5806 227.325 27.0482 227.325 26.356C227.325 24.5457 228.817 23.0016 230.735 23.0016C232.173 23.0016 233.558 23.8003 234.358 25.6106L242.029 43.341L249.914 25.5573C250.713 23.747 252.045 22.9484 253.483 22.9484C255.455 22.9484 256.946 24.4925 256.946 26.3028Z"
						fill="#0A0A0A"></path>
					<path
						d="M0.0537109 1.3311V8.35938C0.0537109 8.83858 0.373363 9.31778 0.799565 9.53076L32.818 24.1198C33.7237 24.5457 34.7359 23.9068 34.7359 22.9484V15.9734C34.7359 15.4942 34.4163 15.015 33.9901 14.802L1.91835 0.159715C1.06594 -0.212997 0.0537109 0.372693 0.0537109 1.3311Z"
						fill="#0A0A0A"></path>
					<path
						d="M0.0537109 26.0898V33.1181C0.0537109 33.5973 0.373363 34.0765 0.799565 34.2895L30.4739 47.9201C31.3796 48.346 32.3918 47.7071 32.3918 46.7487V39.7204C32.3918 39.2412 32.0722 38.762 31.646 38.549L1.91835 24.9184C1.06594 24.4925 0.0537109 25.1314 0.0537109 26.0898Z"
						fill="#0A0A0A"></path>
					<path
						d="M22.9082 48.9318L24.8794 56.7588C24.8794 57.238 25.199 57.7172 25.6252 57.9301L35.8541 62.7222C36.7598 63.1481 37.772 62.5092 37.772 61.5508V54.5225C37.772 54.0433 37.4524 53.5641 37.0262 53.3511L24.8261 47.7604C23.9204 47.3877 22.9082 48.0266 22.9082 48.9318Z"
						fill="#0A0A0A"></path>
					<path
						d="M0.0537109 38.4426V45.4709C0.0537109 45.9501 0.373363 46.4293 0.799565 46.6422L14.2782 52.8186C15.1839 53.2446 16.1961 52.6056 16.1961 51.6472V44.619C16.1961 44.1398 15.8765 43.6606 15.4503 43.4476L1.97162 37.2712C1.06594 36.8452 0.0537109 37.4842 0.0537109 38.4426Z"
						fill="#0A0A0A"></path>
					<path
						d="M37.7722 29.817C37.7722 29.3378 37.4525 28.8586 37.0263 28.6456L24.0271 22.7355C24.3468 23.2147 24.6132 23.6939 24.8263 24.2263C25.0394 24.8653 25.1459 25.5574 25.0926 26.2496C25.0394 26.9418 24.8795 27.634 24.6132 28.2197C24.2935 28.8586 23.9206 29.391 23.3878 29.8702C22.8551 30.3494 22.2691 30.6689 21.6297 30.9351C21.3634 31.0416 21.0437 31.0949 20.7773 31.1481L35.8543 38.0167C36.6534 38.3361 37.7722 37.644 37.7722 36.8453V29.817Z"
						fill="#0A0A0A"></path>
					<path
						d="M13.9053 19.0084C13.9053 18.4227 13.5856 17.8902 13.0529 17.6772L1.97162 12.5658C1.06594 12.1398 0.0537109 12.7787 0.0537109 13.7371V20.7654C0.0537109 21.2446 0.373363 21.7238 0.799565 21.9368L11.7743 26.995C12.7332 27.421 13.852 26.7288 13.852 25.6639L13.9053 19.0084Z"
						fill="#0A0A0A"></path>
				</svg>